# xmcd
#
# Track frame offsets:
#	150
#	13914
#	28979
#	48515
#	67545
#	80046
#	101340
#	115793
#	129880
#	144217
#	157563
#	176929
#
# Disc length: 2546 seconds
#
# Revision: 0
# Processed by: cddbd v1.5.2PL0 Copyright (c) Steve Scherf et al.
# Submitted via: EasyCDDAExtractor 10.0.2.1
#
DISCID=8f09f00c
DTITLE=True North - Pluck
DYEAR=2006
DGENRE=Bluegrass
TTITLE0='Til I Have You
TTITLE1=Luck In My Eyes
TTITLE2=Come To Jesus
TTITLE3=So Says The Whippoorwill
TTITLE4=Desiree McRae
TTITLE5=Free Fallin
TTITLE6=Limbo
TTITLE7=I Wonder
TTITLE8=September Rose
TTITLE9=Dear Sarah
TTITLE10=Too Old To Die Young
TTITLE11=Friday Night
EXTD=
EXTT0=
EXTT1=
EXTT2=
EXTT3=
EXTT4=
EXTT5=
EXTT6=
EXTT7=
EXTT8=
EXTT9=
EXTT10=
EXTT11=
PLAYORDER=
